<svg width="464" height="738" viewBox="0 0 464 738" fill="none" xmlns="http://www.w3.org/2000/svg">
<path d="M0.477314 400C8.90184 329.792 71.509 314.69 125.477 269C152.064 246.491 170.478 238.185 196.477 215C242.381 174.065 236.811 84.3333 298.477 95C360.144 105.667 423.404 83.7892 453.977 139C488.888 202.043 419.477 196.5 375.477 306C331.477 415.5 435.836 398.314 433.477 464C431.976 505.814 404.184 525.159 403.977 567C403.704 622.305 476.521 648.997 453.977 699.5C426.483 761.094 282.477 720 282.477 720C230.644 730 66.7746 770.04 59.4773 682C55.2001 630.396 121.096 618.595 125.477 567C132.371 485.829 -9.22814 480.883 0.477314 400Z" fill="#E5E5E5" fill-opacity="0.06"/>
<g clip-path="url(#clip0_6_337)">
<path d="M177.191 556.376C117.926 561.959 86.024 632.111 125.282 680.013C143.424 702.233 173.72 713.224 203.581 705.58C219.578 701.481 233.41 692.384 243.263 680.548C286.293 629.134 245.76 549.876 177.191 556.376Z" fill="url(#paint0_radial_6_337)"/>
<path d="M184.392 687.028C163.556 687.028 145.403 675.552 136.006 658.606C115.273 621.243 143.87 575.887 185.615 577.215C212.17 577.751 234.602 597.21 238.881 623.087C244.496 656.484 218.542 687.028 184.392 687.028Z" fill="url(#paint1_radial_6_337)"/>
<g opacity="0.75">
<path d="M206.326 640.991C204.037 640.424 203.405 643.257 204.7 643.896C205.995 644.545 209.248 646.482 209.901 645.184C210.554 643.896 208.927 641.64 206.326 640.991Z" fill="#056DB1"/>
<path d="M229.069 617.092C226.851 617.597 224.199 618.709 226.468 620.327C228.748 621.944 232.312 621.295 232.643 619.358C232.964 617.411 233.296 616.124 229.069 617.092Z" fill="#056DB1"/>
<path d="M184.558 669.093C179.792 666.25 172.86 665.22 172.207 668.125C171.555 671.03 176.103 675.552 181.626 674.903C187.158 674.264 187.811 671.03 184.558 669.093Z" fill="#056DB1"/>
<path d="M200.099 684.772C195.8 686.039 191.282 686.801 186.609 686.976C187.676 680.249 194.111 682.371 197.551 683.299C198.556 683.577 199.395 684.123 200.099 684.772Z" fill="#056DB1"/>
<path d="M154.345 668.774C156.448 669.691 157.919 665.22 154.998 661.346C152.076 657.473 150.77 652.621 147.196 651.653C143.621 650.685 141.673 663.283 154.345 668.774Z" fill="#056DB1"/>
<path d="M140.047 652.941C138.896 653.147 138.42 655.526 141.02 655.845C143.621 656.175 143.621 652.302 140.047 652.941Z" fill="#056DB1"/>
<path d="M168.964 639.703C166.674 639.497 164.416 640.672 164.737 643.257C165.058 645.843 168.633 643.257 170.259 643.257C171.886 643.257 172.539 640.023 168.964 639.703Z" fill="#056DB1"/>
<path d="M191.386 609.665C189.417 608.738 189.106 612.899 190.733 613.538C192.36 614.187 196.908 612.24 191.386 609.665Z" fill="#056DB1"/>
</g>
<path d="M170.591 630.659C159.546 632.596 157.919 632.915 147.848 641.321C141.186 646.873 134.234 645.081 130.297 643.226C129.561 639.642 129.167 635.923 129.167 632.111C129.167 616.495 135.726 602.392 146.253 592.4C148.418 593.677 150.656 595.408 152.397 597.715C157.267 604.174 156.293 606.76 170.591 614.187C184.879 621.614 181.636 628.722 170.591 630.659Z" fill="url(#paint2_linear_6_337)"/>
<path d="M234.311 608.583C224.116 606.461 217.164 617.926 210.222 617.092C202.099 616.124 204.378 604.174 197.55 591.575C194.131 585.271 193.893 580.903 194.504 578.122C212.149 581.357 226.841 592.935 234.311 608.583Z" fill="url(#paint3_linear_6_337)"/>
<path d="M239.627 632.111C239.627 653.425 227.421 671.895 209.58 681.001C205.508 674.604 212.108 669.855 219.972 664.9C229.722 658.761 220.625 656.175 222.241 646.162C223.868 636.149 217.692 635.5 220.614 627.105C222.697 621.109 233.555 626.796 239.596 630.545C239.616 631.061 239.627 631.586 239.627 632.111Z" fill="url(#paint4_linear_6_337)"/>
<path d="M187.811 648.748C181.905 650.571 178.714 643.577 171.244 645.194C163.773 646.811 157.598 660.049 167.669 659.729C177.74 659.41 180.341 658.112 187.811 663.283C195.281 668.454 204.057 664.9 206.658 656.824C209.248 648.748 207.621 642.608 187.811 648.748Z" fill="url(#paint5_linear_6_337)"/>
<path d="M200.151 624.519C197.043 625.508 196.255 627.105 197.229 629.042C198.203 630.978 202.099 630.659 204.047 633.564C205.995 636.469 210.875 640.023 212.17 633.564C213.475 627.105 207.3 622.253 200.151 624.519Z" fill="url(#paint6_linear_6_337)"/>
<path opacity="0.5" d="M188.785 607.718C188.205 612.024 184.236 607.718 177.74 606.43C171.244 605.142 168.643 601.259 171.565 598.673C174.487 596.088 178.382 594.151 182.289 596.407C186.184 598.673 189.427 602.876 188.785 607.718Z" fill="#056DB1"/>
<path d="M181.957 582.201C173.834 582.201 169.938 586.724 162.468 589.309C158.013 590.844 154.49 589.062 152.366 587.373C161.401 580.965 172.456 577.195 184.402 577.195C184.817 577.195 185.221 577.195 185.625 577.216C186.195 579.544 185.987 582.201 181.957 582.201Z" fill="url(#paint7_linear_6_337)"/>
<path opacity="0.45" d="M236.995 648.913C232.488 662.871 222.51 674.398 209.58 681.001C206.564 682.536 203.394 683.803 200.099 684.782C195.799 686.049 191.282 686.811 186.609 686.986C185.873 687.017 185.138 687.028 184.392 687.028C163.556 687.028 145.403 675.552 136.006 658.606C133.374 653.868 131.426 648.696 130.297 643.226C129.561 639.642 129.167 635.923 129.167 632.111C129.167 625.477 130.349 619.121 132.514 613.239C138.762 631.792 153.06 655.732 185.563 660.172C191.904 661.037 197.83 661.151 203.363 660.677C216.936 659.492 228.105 654.774 236.995 648.913Z" fill="url(#paint8_linear_6_337)"/>
<path opacity="0.45" d="M239.627 632.111C239.627 637.973 238.705 643.618 236.995 648.913C232.488 662.871 222.51 674.398 209.58 681.001C206.565 682.536 203.394 683.803 200.099 684.782C195.799 686.049 191.282 686.811 186.609 686.986C185.874 687.017 185.138 687.028 184.392 687.028C163.556 687.028 145.403 675.552 136.006 658.606C145.559 662.511 156.935 665.179 170.425 665.704C183.511 666.219 194.37 664.21 203.363 660.667C222.697 653.064 233.472 638.354 239.316 626.24C239.471 627.651 239.565 629.093 239.606 630.535C239.616 631.061 239.627 631.586 239.627 632.111Z" fill="url(#paint9_linear_6_337)"/>
<path d="M238.891 623.118C238.891 623.118 231.027 594.48 194.867 585.055C173.192 579.399 158.147 584.498 149.579 589.484C176.942 567.275 218.791 576.092 234.312 608.583C237.917 616.113 238.632 622.067 238.891 623.118Z" fill="url(#paint10_linear_6_337)"/>
</g>
<rect width="160.252" height="150.433" rx="15" transform="matrix(0.835813 0.549014 -0.549051 0.835789 261.756 50.9114)" fill="#686767"/>
<rect width="160.252" height="3.27028" transform="matrix(0.835813 0.549014 -0.549051 0.835789 239.311 85.076)" fill="#595959"/>
<rect width="160.252" height="3.27027" transform="matrix(0.835813 0.549015 -0.549051 0.835789 230.334 98.7424)" fill="#595959"/>
<ellipse cx="3.27046" cy="3.2703" rx="3.27046" ry="3.2703" transform="matrix(0.835813 0.549015 -0.549051 0.835789 251.492 75.4697)" fill="#7D7D7D"/>
<ellipse cx="3.2704" cy="3.27026" rx="3.2704" ry="3.27026" transform="matrix(0.835811 0.549017 -0.549049 0.835791 369.031 152.677)" fill="#7D7D7D"/>
<ellipse cx="3.27043" cy="3.27026" rx="3.27043" ry="3.27026" transform="matrix(0.835813 0.549015 -0.549051 0.835789 230.843 106.902)" fill="#7D7D7D"/>
<ellipse cx="3.27046" cy="3.2703" rx="3.27046" ry="3.2703" transform="matrix(0.835813 0.549015 -0.549051 0.835789 348.382 184.11)" fill="#7D7D7D"/>
<rect width="31.0692" height="83.392" rx="10" transform="matrix(0.999318 -0.0369264 0.0368827 0.99932 307.441 170.835)" fill="#D6D6D6"/>
<ellipse cx="10.6289" cy="10.6284" rx="10.6289" ry="10.6284" transform="matrix(0.999318 -0.0369266 0.0368825 0.99932 321.292 235.774)" fill="url(#paint11_radial_6_337)"/>
<rect width="31.0692" height="83.392" rx="10" transform="matrix(-0.294269 -0.955723 -0.95571 0.29431 257.302 140.126)" fill="#D6D6D6"/>
<ellipse cx="10.6289" cy="10.6284" rx="10.6289" ry="10.6284" transform="matrix(-0.294269 -0.955723 -0.95571 0.294311 192.384 148.662)" fill="url(#paint12_radial_6_337)"/>
<path d="M278.824 239.181L209.12 193.396L169.722 253.369C166.689 257.985 167.973 264.185 172.589 267.217L182.525 273.743C187.141 276.775 193.341 275.492 196.373 270.876L215.01 242.506C217.799 238.26 223.502 237.079 227.748 239.868C231.994 242.657 233.175 248.36 230.386 252.605L211.749 280.975C208.717 285.591 210.001 291.791 214.617 294.823L225.577 302.023C230.193 305.055 236.393 303.771 239.425 299.155L278.824 239.181Z" fill="#D6D6D6"/>
<rect width="106.289" height="103.014" transform="matrix(0.835813 0.549014 -0.549051 0.835789 254.317 103.747)" fill="#E1E1E1"/>
<rect width="99.7485" height="29.4325" transform="matrix(0.835813 0.549014 -0.549051 0.835789 209.468 177.974)" fill="#E1E1E1"/>
<rect width="8.17611" height="103.014" transform="matrix(0.835813 0.549015 -0.549051 0.835789 267.984 112.725)" fill="url(#paint13_linear_6_337)"/>
<rect width="8.17612" height="103.014" transform="matrix(0.835813 0.549014 -0.549052 0.835788 319.921 146.84)" fill="url(#paint14_linear_6_337)"/>
<rect width="106.289" height="3.27027" transform="matrix(0.835813 0.549014 -0.549051 0.835789 199.553 187.112)" fill="#9A9A9A"/>
<rect width="11.4466" height="26.1622" rx="5.72329" transform="matrix(0.835814 0.549014 -0.549052 0.835788 365.6 127.936)" fill="#D6D6D6"/>
<rect width="11.4465" height="26.1622" rx="5.72327" transform="matrix(0.835813 0.549015 -0.549051 0.835789 267.194 63.2968)" fill="#D6D6D6"/>
<path d="M362.309 141.425C344.535 168.481 308.191 176.006 281.132 158.233C254.074 140.459 246.547 104.117 264.321 77.0607C282.095 50.0044 318.439 42.4794 345.497 60.2531C372.556 78.0268 380.082 114.369 362.309 141.425Z" fill="#D6D6D6" stroke="#E1E1E1" stroke-width="0.5"/>
<path fill-rule="evenodd" clip-rule="evenodd" d="M361.545 142.88C343.112 167.848 308.149 174.322 281.893 157.075C255.636 139.828 247.693 105.171 263.289 78.3388C262.645 79.2111 262.021 80.1059 261.419 81.0231C243.569 108.195 251.128 144.692 278.302 162.541C305.475 180.391 341.974 172.834 359.824 145.662C360.427 144.745 361 143.817 361.545 142.88Z" fill="#DDDDDD"/>
<path fill-rule="evenodd" clip-rule="evenodd" d="M357.954 148.346C339.521 173.315 304.558 179.788 278.302 162.541C252.045 145.294 244.102 110.638 259.698 83.8057C259.054 84.6779 258.43 85.5727 257.828 86.4899C239.978 113.662 247.537 150.158 274.71 168.008C301.884 185.857 338.383 178.3 356.233 151.129C356.835 150.211 357.409 149.284 357.954 148.346Z" fill="#D6D6D6"/>
<path d="M368.157 121.79C359.387 99.4008 314.499 67.9591 285.878 60.8972C264.446 77.1422 253.137 101.533 262.971 127.039C268.432 141.201 276.001 148.081 289.02 155.887C298.651 161.662 305.071 164.61 316.294 164.999C342.641 165.912 364.861 137.232 368.157 121.79Z" fill="black"/>
<rect x="296.482" y="173.255" width="3.27044" height="1.63515" rx="0.817574" transform="rotate(13.3007 296.482 173.255)" fill="#C4C4C4"/>
<rect width="1.63528" height="1.63508" rx="0.817539" transform="matrix(0.973176 0.230061 -0.230062 0.973176 303.744 174.113)" fill="#C4C4C4"/>
<mask id="mask0_6_337" style="mask-type:alpha" maskUnits="userSpaceOnUse" x="259" y="60" width="110" height="106">
<path d="M368.157 121.792C359.387 99.402 314.499 67.9604 285.878 60.8984C264.446 77.1435 253.137 101.534 262.971 127.04C268.432 141.202 276.001 148.083 289.02 155.888C298.651 161.663 305.071 164.611 316.294 165C342.641 165.914 364.861 137.233 368.157 121.792Z" fill="black"/>
</mask>
<g mask="url(#mask0_6_337)">
<rect width="16.3516" height="90.6049" transform="matrix(0.369765 0.929126 -0.929149 0.369707 329.761 66.331)" fill="#484848"/>
<rect width="9.22658" height="95.5158" transform="matrix(0.369764 0.929126 -0.929149 0.369707 346.674 88.5317)" fill="#484848"/>
</g>
<ellipse cx="10.6289" cy="10.6284" rx="10.6289" ry="10.6284" transform="matrix(0.835813 0.549015 -0.549051 0.835789 287.186 68.6036)" fill="#828282" fill-opacity="0.5"/>
<ellipse cx="5.72329" cy="5.72298" rx="5.72329" ry="5.72298" transform="matrix(0.835814 0.549013 -0.549053 0.835788 300.853 77.5813)" fill="#828282" fill-opacity="0.5"/>
<ellipse cx="4.08804" cy="4.08785" rx="4.08804" ry="4.08785" transform="matrix(0.835812 0.549016 -0.54905 0.83579 278.208 82.2699)" fill="#828282" fill-opacity="0.5"/>
<ellipse cx="4.08805" cy="4.08785" rx="4.08805" ry="4.08785" transform="matrix(0.835813 0.549015 -0.549051 0.835789 308.853 53.4907)" fill="#BC0D0D"/>
<ellipse cx="4.08808" cy="4.08786" rx="4.08808" ry="4.08786" transform="matrix(0.835814 0.549013 -0.549053 0.835788 327.478 57.8994)" fill="#BC0D0D"/>
<rect width="44.151" height="22.8919" rx="5" transform="matrix(0.835813 0.549015 -0.549051 0.835789 250.19 163.639)" fill="#273AE7"/>
<path d="M271.629 181.634L260.672 182.996L266.7 185.733L251.717 188.118" stroke="#D2CB15"/>
<defs>
<radialGradient id="paint0_radial_6_337" cx="0" cy="0" r="1" gradientUnits="userSpaceOnUse" gradientTransform="translate(184.474 632.003) scale(65.9981 65.6176)">
<stop stop-color="#90DD6F"/>
<stop offset="1" stop-color="#B8FFA9" stop-opacity="0"/>
</radialGradient>
<radialGradient id="paint1_radial_6_337" cx="0" cy="0" r="1" gradientUnits="userSpaceOnUse" gradientTransform="translate(187.134 610.621) scale(67.0302 66.6438)">
<stop stop-color="#00B3DC"/>
<stop offset="1" stop-color="#056DB0"/>
</radialGradient>
<linearGradient id="paint2_linear_6_337" x1="148.103" y1="547.447" x2="160.628" y2="705.406" gradientUnits="userSpaceOnUse">
<stop stop-color="#F2F236"/>
<stop offset="1" stop-color="#F2F236" stop-opacity="0"/>
</linearGradient>
<linearGradient id="paint3_linear_6_337" x1="210.08" y1="542.532" x2="222.606" y2="700.491" gradientUnits="userSpaceOnUse">
<stop stop-color="#F2F236"/>
<stop offset="1" stop-color="#F2F236" stop-opacity="0"/>
</linearGradient>
<linearGradient id="paint4_linear_6_337" x1="215.001" y1="542.142" x2="227.527" y2="700.101" gradientUnits="userSpaceOnUse">
<stop stop-color="#F2F236"/>
<stop offset="1" stop-color="#F2F236" stop-opacity="0"/>
</linearGradient>
<linearGradient id="paint5_linear_6_337" x1="176.3" y1="545.211" x2="188.826" y2="703.17" gradientUnits="userSpaceOnUse">
<stop stop-color="#F2F236"/>
<stop offset="1" stop-color="#F2F236" stop-opacity="0"/>
</linearGradient>
<linearGradient id="paint6_linear_6_337" x1="197.687" y1="543.515" x2="210.212" y2="701.474" gradientUnits="userSpaceOnUse">
<stop stop-color="#F2F236"/>
<stop offset="1" stop-color="#F2F236" stop-opacity="0"/>
</linearGradient>
<linearGradient id="paint7_linear_6_337" x1="166.139" y1="546.017" x2="178.664" y2="703.975" gradientUnits="userSpaceOnUse">
<stop stop-color="#F2F236"/>
<stop offset="1" stop-color="#F2F236" stop-opacity="0"/>
</linearGradient>
<linearGradient id="paint8_linear_6_337" x1="175.996" y1="703.204" x2="184.187" y2="628.096" gradientUnits="userSpaceOnUse">
<stop stop-color="#00ACD8"/>
<stop offset="1" stop-color="#0983BD"/>
</linearGradient>
<linearGradient id="paint9_linear_6_337" x1="181.566" y1="699.975" x2="190.72" y2="621.474" gradientUnits="userSpaceOnUse">
<stop stop-color="#056EB1"/>
<stop offset="1" stop-color="#00A9D7" stop-opacity="0.3"/>
</linearGradient>
<linearGradient id="paint10_linear_6_337" x1="224.505" y1="546.95" x2="190.06" y2="615.268" gradientUnits="userSpaceOnUse">
<stop stop-color="#E2FFB5"/>
<stop offset="1" stop-color="#FFFFB3" stop-opacity="0"/>
</linearGradient>
<radialGradient id="paint11_radial_6_337" cx="0" cy="0" r="1" gradientUnits="userSpaceOnUse" gradientTransform="translate(13.0818 13.0811) rotate(-156.802) scale(6.22669 6.22647)">
<stop stop-color="white"/>
<stop offset="1" stop-color="#DDDDDD"/>
</radialGradient>
<radialGradient id="paint12_radial_6_337" cx="0" cy="0" r="1" gradientUnits="userSpaceOnUse" gradientTransform="translate(13.0818 13.0811) rotate(-156.802) scale(6.22669 6.22647)">
<stop stop-color="white"/>
<stop offset="1" stop-color="#DDDDDD"/>
</radialGradient>
<linearGradient id="paint13_linear_6_337" x1="4.08805" y1="0" x2="4.08805" y2="103.014" gradientUnits="userSpaceOnUse">
<stop stop-color="#3BB094"/>
<stop offset="1" stop-color="#232030"/>
</linearGradient>
<linearGradient id="paint14_linear_6_337" x1="4.08806" y1="0" x2="4.08806" y2="103.014" gradientUnits="userSpaceOnUse">
<stop stop-color="#3BB094"/>
<stop offset="1" stop-color="#232030"/>
</linearGradient>
<clipPath id="clip0_6_337">
<rect width="153" height="152" fill="white" transform="translate(107.977 556)"/>
</clipPath>
</defs>
</svg>
