<svg width="542" height="778" viewBox="0 0 542 778" fill="none" xmlns="http://www.w3.org/2000/svg">
<g clip-path="url(#clip0_6_336)">
<path d="M86.3739 -207.939C-235.928 -177.352 -409.361 206.578 -195.905 468.794C-97.2945 590.437 67.4564 650.622 229.878 608.733C316.912 586.269 392.088 536.538 445.664 471.761C679.661 190.26 459.287 -243.542 86.3739 -207.939Z" fill="url(#paint0_radial_6_336)"/>
<path d="M447.359 205.236C447.359 224.026 445.735 242.463 442.629 260.335C440.935 269.942 438.888 279.408 436.417 288.732C422.724 339.876 396.747 385.933 361.877 423.655C349.242 437.359 335.407 449.933 320.513 461.236C306.819 471.691 292.207 481.086 276.89 489.28C256.137 500.371 234.044 509.201 210.891 515.558C183.856 522.975 155.409 526.861 126.045 526.861C112.563 526.861 99.2922 526.013 86.3041 524.388C-22.5416 510.967 -114.588 443.011 -161.599 348.706C-179.952 311.973 -191.457 271.284 -194.492 228.264C-195.057 220.635 -195.34 212.935 -195.34 205.236C-195.34 156.706 -184.61 110.719 -165.411 69.4649C-148.258 32.5907 -124.258 -0.468956 -95.1761 -28.0893C-68.2823 -53.6611 -36.9415 -74.6412 -2.42427 -89.6876C36.8929 -106.853 80.3746 -116.39 125.974 -116.39C264.537 -116.39 382.63 -28.6544 427.735 94.4009C438.959 125.059 445.664 157.836 447.076 192.096C447.288 196.405 447.359 200.785 447.359 205.236Z" fill="url(#paint1_radial_6_336)"/>
<path d="M90.7526 294.03C90.3291 296.644 89.4115 299.116 88.0703 301.377C77.8352 319.743 42.1885 328.785 2.4478 321.933C-32.14 315.929 -59.7397 299.54 -68.6338 281.739C-71.2455 276.512 -72.2336 271.214 -71.316 265.916C-67.2925 242.746 -28.3989 237.165 16.3535 245.006C61.1059 252.706 94.7761 270.86 90.7526 294.03Z" fill="#BCBCBC"/>
<path d="M-4.47047 140.882L-4.54113 140.953C-13.4351 154.374 -41.1759 142.083 -73.4344 120.962C-99.7635 103.725 -118.54 86.5598 -119.81 73.4913C-120.093 70.5244 -119.457 67.6988 -117.834 65.1558C-108.94 51.5928 -73.6461 50.6745 -41.3171 71.8666C-8.98808 93.0587 4.42354 127.319 -4.47047 140.882Z" fill="#BCBCBC"/>
<path d="M351.572 338.958C325.525 360.715 294.326 366.295 281.973 351.39C281.338 350.613 280.773 349.836 280.279 348.989C270.82 333.518 282.114 305.757 306.82 285.2C331.949 264.22 361.807 258.286 375.007 271.214C375.501 271.708 375.995 272.203 376.419 272.697C388.772 287.602 377.69 317.271 351.572 338.958Z" fill="#BCBCBC"/>
<path d="M163.668 160.591C137.339 181.43 110.587 192.944 95.2692 173.589C93.7868 171.752 92.5869 169.774 91.528 167.655C81.787 148.017 91.3869 119.549 115.245 100.688C141.574 79.8492 177.504 70.0302 201.997 101.041C202.139 101.253 202.35 101.465 202.421 101.677C216.821 120.821 189.786 139.964 163.668 160.591Z" fill="#BCBCBC"/>
<path d="M58.4927 451.629C54.681 455.302 47.1281 457.351 35.2694 456.786C-8.21244 454.878 -55.4354 401.898 -42.2355 384.874C-42.0238 384.591 -41.812 384.379 -41.6003 384.167C-27.9063 368.697 6.39914 396.529 23.9048 405.713C52.775 420.83 68.5867 441.951 58.4927 451.629Z" fill="#BCBCBC"/>
<path d="M229.032 412.565C229.103 422.595 215.48 433.192 194.021 434.11C154.775 435.805 132.398 428.247 127.104 414.26C126.54 412.776 126.187 411.222 125.975 409.527C124.069 392.503 159.998 395.399 178.915 394.41C214.421 392.503 228.962 402.251 229.032 412.565Z" fill="#BCBCBC"/>
<path d="M347.971 186.869C343.666 193.298 335.336 197.677 324.536 197.677C290.513 197.677 245.126 173.094 250.843 150.348C251.478 147.735 252.467 145.474 253.596 143.637C262.349 129.509 284.443 136.361 305.69 140.882C348.183 149.924 357.289 173.094 347.971 186.869Z" fill="#BCBCBC"/>
<path d="M237.502 19.8048C237.079 18.8158 236.867 17.6856 236.726 16.4847C235.879 6.80697 245.408 -7.32108 263.973 -12.4072C276.043 -15.7273 292.349 -15.3035 302.443 -9.08711C306.89 -6.33214 310.066 -2.51755 311.266 2.70983C314.089 15.7076 243.502 34.8511 237.502 19.8048Z" fill="#BCBCBC"/>
<path d="M400.065 108.741C398.583 109.447 396.818 109.589 394.912 109.094C387.006 107.046 376.701 94.8955 373.595 76.5997C371.83 65.8623 377.195 55.5489 384.183 52.2994C391.947 48.6261 401.759 53.7122 405.712 76.5997C408.041 89.5975 407.688 104.926 400.065 108.741Z" fill="#BCBCBC"/>
<path d="M361.878 423.655C337.526 450.004 308.797 472.256 276.891 489.209C273.291 487.443 270.044 484.83 268.774 481.086C267.644 477.765 268.138 473.527 271.597 468.158C284.797 447.32 298.067 415.178 328.279 413.271C337.102 412.706 344.09 413.765 349.667 415.743C355.031 417.721 358.984 420.547 361.878 423.655Z" fill="#BCBCBC"/>
<path d="M210.821 515.488C183.786 522.905 155.339 526.79 125.975 526.79C112.493 526.79 99.2225 525.942 86.2344 524.318C86.2344 520.503 86.9403 516.406 89.2697 512.945C91.5285 509.624 95.2696 506.94 101.411 505.951C124.069 502.137 135.434 487.02 167.551 488.927C184.21 489.916 195.857 498.039 203.127 505.598C206.727 509.413 209.198 512.945 210.821 515.488Z" fill="#BCBCBC"/>
<path d="M71.1974 354.64C62.7269 350.401 56.0917 347.081 57.9975 364.105C59.9034 381.13 73.1032 384.944 84.4678 384.944C95.7618 384.944 78.7503 358.454 71.1974 354.64Z" fill="#9B9B9B"/>
<path d="M447.358 205.235C447.358 224.026 445.734 242.463 442.629 260.335C439.876 259.275 437.052 257.368 434.088 254.401C415.17 235.47 429.499 208.626 434.088 199.514C439.17 189.341 444.252 190.26 447.076 192.026C447.287 196.405 447.358 200.785 447.358 205.235Z" fill="#9B9B9B"/>
<path d="M252.678 226.004C241.737 224.661 235.666 233.562 252.678 241.121C269.689 248.75 267.783 227.911 252.678 226.004Z" fill="#9B9B9B"/>
<path d="M114.68 8.50235C109.033 10.4096 101.481 16.0609 114.68 17.9681C127.88 19.8048 120.327 6.59506 114.68 8.50235Z" fill="#9B9B9B"/>
<path d="M146.797 8.50232C139.88 4.47582 139.244 23.6193 144.891 31.1778C150.538 38.7363 169.456 21.712 146.797 8.50232Z" fill="#9B9B9B"/>
<path d="M207.29 456.856C203.196 457.774 201.643 464.415 212.937 468.229C224.301 471.973 224.301 453.042 207.29 456.856Z" fill="#9B9B9B"/>
<path d="M42.8222 488.997C37.1752 490.905 31.4576 494.649 42.8222 498.463C54.1868 502.207 48.4692 487.09 42.8222 488.997Z" fill="#9B9B9B"/>
<path d="M52.2808 210.887C42.6809 211.381 63.6454 224.096 69.2923 226.004C74.9393 227.911 91.9509 208.979 52.2808 210.887Z" fill="#9B9B9B"/>
<path d="M362.3 161.721C357.571 165.394 366.112 186.304 373.665 184.397C381.218 182.489 379.312 148.441 362.3 161.721Z" fill="#9B9B9B"/>
<path d="M210.257 294.313C209.41 297.563 208.351 300.741 207.292 303.567C201.786 318.331 169.245 324.123 160.634 317.342C160.422 317.2 160.21 316.989 159.998 316.777C152.446 309.218 159.787 290.216 163.81 280.821C169.457 267.611 197.833 258.145 207.292 261.889C214.915 265.068 213.927 280.538 210.257 294.313Z" fill="#BCBCBC"/>
<path d="M-119.81 73.562C-120.093 70.5951 -119.457 67.7695 -117.834 65.2265C-108.94 51.6635 -73.6461 50.7452 -41.3171 71.9373C-8.98808 93.1294 4.42354 127.39 -4.47047 140.953L-4.54113 141.023C-4.04701 132.759 -7.50572 121.174 -19.5762 104.997C-51.0581 62.966 -108.446 48.4847 -119.81 73.562Z" fill="#9B9B9B"/>
<path d="M90.7526 294.03C90.3291 296.644 89.4115 299.116 88.0703 301.377C87.2939 298.127 80.3057 272.626 48.4708 261.96C15.4359 250.94 -29.0342 241.121 -55.5045 261.96C-63.975 268.6 -67.5749 275.452 -68.6338 281.668C-71.2455 276.441 -72.2336 271.143 -71.316 265.845C-67.2925 242.675 -28.3989 237.094 16.3535 244.935C61.1059 252.706 94.7761 270.86 90.7526 294.03Z" fill="#9B9B9B"/>
<path d="M142.986 95.4607C107.834 107.611 93.0104 142.083 91.528 167.655C81.787 148.017 91.3869 119.549 115.245 100.688C141.574 79.8492 177.504 70.0302 201.997 101.041C202.139 101.253 202.35 101.465 202.421 101.677C191.833 93.4828 172.562 85.2885 142.986 95.4607Z" fill="#9B9B9B"/>
<path d="M210.257 294.313C209.904 280.609 206.515 265.139 192.186 269.518C177.504 274.039 160.845 300.671 160.704 317.342C160.493 317.2 160.281 316.989 160.069 316.777C152.516 309.218 159.857 290.216 163.881 280.821C169.528 267.611 197.904 258.145 207.363 261.889C214.916 265.068 213.927 280.538 210.257 294.313Z" fill="#9B9B9B"/>
<path d="M347.972 186.869C352.278 161.933 312.325 153.88 292.349 146.604C272.585 139.399 259.032 141.942 253.526 143.637C262.279 129.509 284.373 136.361 305.62 140.882C348.184 149.924 357.29 173.094 347.972 186.869Z" fill="#9B9B9B"/>
<path d="M237.504 19.8049C237.08 18.8159 236.868 17.6857 236.727 16.4848C248.656 24.3965 279.221 17.9682 296.091 10.3391C308.162 4.82912 306.185 -3.22386 302.444 -9.01636C306.891 -6.26139 310.067 -2.44683 311.267 2.78055C314.091 15.7077 243.504 34.8512 237.504 19.8049Z" fill="#9B9B9B"/>
<path d="M58.4929 451.629C56.8693 441.457 47.5518 431.567 31.4579 422.737C10.6346 411.364 -4.47114 400.061 -17.671 390.596C-24.5885 385.651 -34.1178 384.309 -41.6001 384.167C-27.9061 368.697 6.39931 396.529 23.905 405.713C52.7752 420.83 68.5869 441.951 58.4929 451.629Z" fill="#9B9B9B"/>
<path d="M229.032 412.565C225.997 405.006 216.821 401.898 201.574 401.898H148.634C128.375 401.898 127.104 413.624 127.104 414.189C126.54 412.706 126.187 411.152 125.975 409.456C124.069 392.432 159.998 395.328 178.915 394.339C214.421 392.503 228.962 402.251 229.032 412.565Z" fill="#9B9B9B"/>
<path d="M203.127 505.669C206.727 509.342 209.198 512.945 210.821 515.488C183.786 522.905 155.339 526.79 125.975 526.79C112.493 526.79 99.2225 525.942 86.2344 524.318C86.2344 520.503 86.9403 516.406 89.2697 512.945C152.092 527.779 188.304 514.004 203.127 505.669Z" fill="#9B9B9B"/>
<path d="M361.877 423.655C337.525 450.004 308.795 472.256 276.89 489.21C273.29 487.444 270.043 484.83 268.772 481.086C321.501 461.307 344.301 425.492 349.665 415.814C355.03 417.722 358.983 420.547 361.877 423.655Z" fill="#9B9B9B"/>
<path d="M375.007 271.214C370.772 269.73 340.631 261.324 305.549 301.66C287.832 322.075 281.691 337.898 280.279 348.989C270.82 333.518 282.114 305.757 306.82 285.2C331.949 264.291 361.807 258.286 375.007 271.214Z" fill="#9B9B9B"/>
<path d="M394.912 109.023C387.006 106.975 376.701 94.8247 373.595 76.5289C371.83 65.7916 377.195 55.4781 384.183 52.2286C381.148 56.2551 378.324 62.4009 379.242 70.8777C380.865 84.5819 386.018 98.2861 394.912 109.023Z" fill="#9B9B9B"/>
<path opacity="0.45" d="M320.513 461.236C306.819 471.691 292.207 481.086 276.89 489.28C256.137 500.371 234.044 509.201 210.891 515.558C183.856 522.975 155.409 526.861 126.045 526.861C112.563 526.861 99.2922 526.013 86.3041 524.388C-22.5416 510.967 -114.588 443.011 -161.599 348.706C-179.952 311.973 -191.457 271.284 -194.492 228.264C-195.057 220.635 -195.34 212.935 -195.34 205.236C-195.34 156.706 -184.61 110.719 -165.411 69.4649C-148.258 32.5907 -124.258 -0.46895 -95.1761 -28.0893C-184.822 399.779 144.892 459.046 320.513 461.236Z" fill="url(#paint2_linear_6_336)"/>
<path d="M447.359 205.236C447.359 224.026 445.735 242.463 442.63 260.335C440.936 269.942 438.888 279.408 436.418 288.732C425.265 30.0477 250.208 -117.025 -2.42374 -89.6876C36.8934 -106.853 80.3752 -116.39 125.975 -116.39C264.538 -116.39 382.63 -28.6544 427.736 94.4009C438.959 125.059 445.665 157.836 447.077 192.096C447.288 196.406 447.359 200.785 447.359 205.236Z" fill="url(#paint3_linear_6_336)"/>
</g>
<path d="M383.5 268.5C329 191 204.113 21.5 79.1125 82.5C-45.8876 143.5 66 122.5 70 195C74 267.5 80.5001 284 61.5 328C24.2889 414.173 22.2247 520.5 56.6123 568C91 615.5 309.612 788 381.112 777.5C452.612 767 438.112 643 396.612 577.5C355.112 512 172.61 602.47 283.613 503C322.113 468.5 415.112 540 438.112 540C461.112 540 541.863 483.73 473.112 388C399.5 285.5 438 346 383.5 268.5Z" fill="#E5E5E5" fill-opacity="0.06"/>
<defs>
<radialGradient id="paint0_radial_6_336" cx="0" cy="0" r="1" gradientUnits="userSpaceOnUse" gradientTransform="translate(126.007 205.977) scale(384.93 385.218)">
<stop stop-color="#F8F8F8"/>
<stop offset="1" stop-color="white" stop-opacity="0"/>
</radialGradient>
<radialGradient id="paint1_radial_6_336" cx="0" cy="0" r="1" gradientUnits="userSpaceOnUse" gradientTransform="translate(111.817 34.9621) scale(490.729 491.096)">
<stop stop-color="#E8E8E8"/>
<stop offset="1" stop-color="#DFDFDF"/>
</radialGradient>
<linearGradient id="paint2_linear_6_336" x1="63.8968" y1="670.403" x2="60.7567" y2="-126.644" gradientUnits="userSpaceOnUse">
<stop/>
<stop offset="1" stop-opacity="0.2"/>
</linearGradient>
<linearGradient id="paint3_linear_6_336" x1="411.847" y1="-116.532" x2="216.166" y2="100.117" gradientUnits="userSpaceOnUse">
<stop stop-color="#B7B7B7"/>
<stop offset="0.557292" stop-color="#AEAEAE" stop-opacity="0.2"/>
</linearGradient>
<clipPath id="clip0_6_336">
<rect width="832" height="832" fill="white" transform="translate(-290 -210)"/>
</clipPath>
</defs>
</svg>
