<svg xmlns="http://www.w3.org/2000/svg" width="276" height="350" viewBox="0 0 276 350"><rect width="100%" height="100%" fill="#DDDDDD"/><path fill="#999999" d="M75.64 157.38h4.63v28.2h-2.7q-.62 0-1.04-.2-.42-.21-.81-.7L61 165.88q.12 1.29.12 2.38v17.32H56.5v-28.2h2.74q.34 0 .58.03.24.03.43.12.18.09.36.25.18.17.39.44l14.78 18.88q-.06-.68-.1-1.35-.04-.66-.04-1.23v-17.14Zm19 7.88q2.22 0 4.04.72 1.83.72 3.12 2.05 1.3 1.33 2 3.24.7 1.91.7 4.27 0 2.38-.7 4.29-.7 1.91-2 3.25-1.29 1.35-3.12 2.07-1.82.72-4.04.72-2.25 0-4.08-.72t-3.13-2.07q-1.29-1.34-2.01-3.25-.71-1.91-.71-4.29 0-2.36.71-4.27.72-1.91 2.01-3.24 1.3-1.33 3.13-2.05 1.83-.72 4.08-.72Zm0 16.91q2.49 0 3.69-1.68 1.2-1.68 1.2-4.91 0-3.24-1.2-4.94-1.2-1.69-3.69-1.69-2.54 0-3.76 1.7-1.22 1.71-1.22 4.93 0 3.21 1.22 4.9 1.22 1.69 3.76 1.69Zm29.05-24.79v28.2h-5.26v-28.2h5.26Zm10.36 28.2h-4.82v-20.01h2.94q.94 0 1.23.88l.32 1.48q.52-.58 1.1-1.07.57-.49 1.23-.84.65-.35 1.4-.55.75-.21 1.65-.21 1.89 0 3.11 1.02 1.22 1.03 1.82 2.73.47-1 1.17-1.71t1.54-1.16q.84-.45 1.79-.66.94-.22 1.9-.22 1.65 0 2.94.51t2.17 1.48q.87.97 1.33 2.38.46 1.4.46 3.22v12.73h-4.82v-12.73q0-1.91-.84-2.88-.83-.96-2.45-.96-.74 0-1.38.25-.63.25-1.11.73-.48.48-.75 1.2t-.27 1.66v12.73h-4.84v-12.73q0-2.01-.81-2.93-.81-.91-2.37-.91-1.05 0-1.96.51-.9.52-1.68 1.42v14.64Zm38.41-5.17v-3.37q-2.08.1-3.51.36-1.42.26-2.28.67-.86.41-1.23.96-.37.54-.37 1.19 0 1.27.75 1.81.75.55 1.96.55 1.48 0 2.57-.54 1.08-.54 2.11-1.63Zm-10.18-10.51-.86-1.54q3.46-3.16 8.31-3.16 1.76 0 3.14.58 1.39.57 2.34 1.6.96 1.02 1.45 2.44.5 1.43.5 3.12v12.64h-2.18q-.69 0-1.06-.2-.37-.21-.58-.83l-.43-1.45q-.76.69-1.48 1.2-.72.52-1.5.87t-1.67.54q-.89.18-1.96.18-1.27 0-2.34-.34-1.07-.34-1.85-1.02-.78-.69-1.21-1.7-.43-1.01-.43-2.36 0-.76.25-1.51.26-.75.83-1.43.58-.69 1.49-1.29.92-.61 2.26-1.05 1.33-.45 3.11-.73 1.77-.29 4.05-.35v-1.17q0-2-.86-2.97-.85-.96-2.47-.96-1.17 0-1.94.27t-1.36.61l-1.06.62q-.48.27-1.06.27-.51 0-.86-.26-.35-.27-.57-.62Zm26.72 5.19q.89 0 1.56-.24.66-.25 1.1-.68.44-.43.66-1.03.23-.61.23-1.33 0-1.48-.89-2.35-.89-.86-2.66-.86-1.78 0-2.66.86-.89.87-.89 2.35 0 .71.22 1.31.23.6.67 1.04.43.44 1.11.69.67.24 1.55.24Zm5.44 11.39q0-.59-.35-.96t-.96-.57q-.6-.21-1.41-.31-.81-.09-1.72-.14-.9-.05-1.87-.09-.97-.04-1.88-.16-.8.45-1.3 1.06-.5.6-.5 1.4 0 .53.27.99.26.45.84.79.57.33 1.49.51.91.19 2.24.19 1.35 0 2.32-.21.98-.2 1.61-.56.63-.36.93-.86.29-.5.29-1.08Zm-.96-20.22h5.76v1.79q0 .86-1.04 1.05l-1.79.33q.41 1.04.41 2.27 0 1.48-.6 2.68-.59 1.2-1.65 2.04-1.05.83-2.48 1.29-1.43.46-3.09.46-.59 0-1.13-.06-.55-.06-1.08-.15-.93.56-.93 1.26 0 .61.55.89.56.28 1.48.4.91.12 2.08.15t2.4.12q1.23.1 2.4.34 1.17.25 2.09.77.91.53 1.47 1.44.55.9.55 2.33 0 1.32-.65 2.57-.65 1.25-1.89 2.23-1.24.97-3.04 1.56-1.81.6-4.11.6-2.26 0-3.94-.44-1.67-.44-2.78-1.17-1.12-.73-1.66-1.69-.55-.95-.55-1.99 0-1.4.85-2.34.85-.95 2.33-1.52-.8-.41-1.27-1.09-.47-.68-.47-1.79 0-.45.17-.93.17-.48.49-.94.32-.47.81-.89.48-.42 1.15-.75-1.52-.82-2.39-2.19-.87-1.36-.87-3.19 0-1.49.6-2.69.59-1.19 1.65-2.04 1.07-.85 2.52-1.3 1.45-.45 3.17-.45 1.28 0 2.42.27 1.13.26 2.06.77Zm12.6 7.02h9.09q0-.94-.27-1.77-.26-.83-.79-1.45-.52-.63-1.33-.99t-1.88-.36q-2.09 0-3.29 1.19-1.2 1.19-1.53 3.38Zm12.28 2.9h-12.38q.12 1.54.55 2.66.43 1.12 1.13 1.86.7.73 1.67 1.09.96.36 2.13.36t2.02-.28q.85-.27 1.48-.6.64-.33 1.11-.6.48-.28.93-.28.6 0 .9.45l1.38 1.76q-.8.93-1.79 1.57-1 .63-2.08 1.01t-2.2.54q-1.12.15-2.18.15-2.08 0-3.88-.69-1.79-.69-3.12-2.05-1.32-1.35-2.08-3.35t-.76-4.63q0-2.05.66-3.85.66-1.81 1.9-3.14 1.24-1.34 3.02-2.12 1.79-.78 4.03-.78 1.89 0 3.49.61 1.6.6 2.75 1.76 1.15 1.16 1.8 2.85.66 1.68.66 3.85 0 1.09-.24 1.47-.23.38-.9.38Z"/></svg>